<?xml version="1.0" encoding="utf-8"?>
<svg id="master-artboard" viewBox="0 0 1400 980" version="1.1" xmlns="http://www.w3.org/2000/svg" x="0px" y="0px" width="1400px" height="980px" style="enable-background:new 0 0 1400 980;">

<path d="M 0 -10.1 H 1400 V 969.9 H 0 V -10.1 Z" class="st0" style="fill-rule: evenodd; clip-rule: evenodd; fill: rgb(0, 12, 29);" transform="matrix(-1, 0, 0, 1, 1396.0469970993931, 1.9764366149902344)"/><path d="M 846.100006 385.600006 A 145.899994 145.899994 0 0 1 700.200012 531.5 A 145.899994 145.899994 0 0 1 554.300018 385.600006 A 145.899994 145.899994 0 0 1 700.200012 239.700012 A 145.899994 145.899994 0 0 1 846.100006 385.600006 Z" class="st0" style="fill-rule: evenodd; clip-rule: evenodd; fill: rgb(0, 12, 29);" transform="matrix(1.0000000149011612, 0, 0, 1.0000000149011612, 5.684341886080802e-14, 0)"/><path class="st8" d="M561.5,869.9c-49.1,0-102.1,18-144.2,45.8c-11.4-5.8-26.1-9.1-43.5-9.1c-38.3,0-79.9,15.9-110.1,39.6&#10;&#9;&#9;&#9;c-5.5-2.1-12.2-3.3-19.8-3.3c-16.4,0-33.9,5.4-48.7,14c-3.1-0.8-6.5-1.2-10.3-1.2c-24,0-75.9,16.5-106.7,34.3h572.4&#10;&#9;&#9;&#9;c0.7-1.3,1.5-2.7,2.2-4C686,921.9,645.1,869.9,561.5,869.9z" style="fill-rule: evenodd; clip-rule: evenodd; fill: rgb(4, 25, 46);" transform="matrix(-0.9997656941413879, -0.02168848179280758, 0.02168848179280758, -0.9997656941413879, 621.507972025079, 978.1000334051782)"/><path class="st7" d="M1377,946.2c-30.2-23.7-71.9-39.6-110.1-39.6c-17.4,0-32.1,3.3-43.5,9.1c-42.1-27.8-95.1-45.8-144.2-45.8&#10;&#9;&#9;&#9;c-83.6,0-124.5,52-91.3,116.1c0.7,1.3,1.4,2.7,2.2,4h410V943c-1.1,0-2.2-0.1-3.2-0.1C1389.1,942.9,1382.5,944.1,1377,946.2z" style="fill-rule: evenodd; clip-rule: evenodd; fill: rgb(1, 20, 39);" transform="matrix(-0.9970769736962024, -0.07641258088013145, 0.07641258088013145, -0.9970769736962024, 2418.5395279560225, 1107.9913794849183)"/><path d="M 1273.699951 269.5 A 4 4 0 0 1 1269.699951 273.5 A 4 4 0 0 1 1265.699951 269.5 A 4 4 0 0 1 1269.699951 265.5 A 4 4 0 0 1 1273.699951 269.5 Z" class="st9" style="fill-rule: evenodd; clip-rule: evenodd; fill: rgb(13, 36, 61);" transform="matrix(1.0000000149011612, 0, 0, 1.0000000149011612, 5.684341886080802e-14, 0)"/><path d="M 1168.7 342.899994 A 10.7 10.7 0 0 1 1158 353.599994 A 10.7 10.7 0 0 1 1147.3 342.899994 A 10.7 10.7 0 0 1 1158 332.199994 A 10.7 10.7 0 0 1 1168.7 342.899994 Z" class="st9" style="fill-rule: evenodd; clip-rule: evenodd; fill: rgb(13, 36, 61);" transform="matrix(1.0000000149011612, 0, 0, 1.0000000149011612, 5.684341886080802e-14, 0)"/><path d="M 1129.800049 374.5 A 4 4 0 0 1 1125.800049 378.5 A 4 4 0 0 1 1121.800049 374.5 A 4 4 0 0 1 1125.800049 370.5 A 4 4 0 0 1 1129.800049 374.5 Z" class="st9" style="fill-rule: evenodd; clip-rule: evenodd; fill: rgb(13, 36, 61);" transform="matrix(1.0000000149011612, 0, 0, 1.0000000149011612, 5.684341886080802e-14, 0)"/><path d="M 221.800006 167.100006 A 10.7 10.7 0 0 1 211.100006 177.800006 A 10.7 10.7 0 0 1 200.400006 167.100006 A 10.7 10.7 0 0 1 211.100006 156.400006 A 10.7 10.7 0 0 1 221.800006 167.100006 Z" class="st9" style="fill-rule: evenodd; clip-rule: evenodd; fill: rgb(13, 36, 61);" transform="matrix(1.0000000149011612, 0, 0, 1.0000000149011612, 5.684341886080802e-14, 0)"/><path d="M 173.300003 230.199997 A 4 4 0 0 1 169.300003 234.199997 A 4 4 0 0 1 165.300003 230.199997 A 4 4 0 0 1 169.300003 226.199997 A 4 4 0 0 1 173.300003 230.199997 Z" class="st9" style="fill-rule: evenodd; clip-rule: evenodd; fill: rgb(13, 36, 61);" transform="matrix(1.0000000149011612, 0, 0, 1.0000000149011612, 5.684341886080802e-14, 0)"/><path d="M 280.599994 321.600006 A 10.7 10.7 0 0 1 269.899994 332.300006 A 10.7 10.7 0 0 1 259.199994 321.600006 A 10.7 10.7 0 0 1 269.899994 310.900006 A 10.7 10.7 0 0 1 280.599994 321.600006 Z" class="st9" style="fill-rule: evenodd; clip-rule: evenodd; fill: rgb(13, 36, 61);" transform="matrix(1.0000000149011612, 0, 0, 1.0000000149011612, 5.684341886080802e-14, 0)"/><path d="M 241.600006 353.100006 A 4 4 0 0 1 237.600006 357.100006 A 4 4 0 0 1 233.600006 353.100006 A 4 4 0 0 1 237.600006 349.100006 A 4 4 0 0 1 241.600006 353.100006 Z" class="st3" style="fill-rule: evenodd; clip-rule: evenodd; fill: rgb(252, 225, 183);" transform="matrix(1.0000000149011612, 0, 0, 1.0000000149011612, 5.684341886080802e-14, 0)"/><path d="M 1248.100024 238 A 10.7 10.7 0 0 1 1237.400024 248.7 A 10.7 10.7 0 0 1 1226.700025 238 A 10.7 10.7 0 0 1 1237.400024 227.3 A 10.7 10.7 0 0 1 1248.100024 238 Z" class="st9" style="fill-rule: evenodd; clip-rule: evenodd; fill: rgb(13, 36, 61);" transform="matrix(1.0000000149011612, 0, 0, 1.0000000149011612, 5.684341886080802e-14, 0)"/><path d="M 996 191 A 4 4 0 0 1 992 195 A 4 4 0 0 1 988 191 A 4 4 0 0 1 992 187 A 4 4 0 0 1 996 191 Z" class="st9" style="fill-rule: evenodd; clip-rule: evenodd; fill: rgb(13, 36, 61);" transform="matrix(1.0000000149011612, 0, 0, 1.0000000149011612, 5.684341886080802e-14, 0)"/><path d="M 887.7 146.199997 A 10.7 10.7 0 0 1 877 156.899997 A 10.7 10.7 0 0 1 866.3 146.199997 A 10.7 10.7 0 0 1 877 135.499997 A 10.7 10.7 0 0 1 887.7 146.199997 Z" class="st9" style="fill-rule: evenodd; clip-rule: evenodd; fill: rgb(13, 36, 61);" transform="matrix(1.0000000149011612, 0, 0, 1.0000000149011612, 5.684341886080802e-14, 0)"/><path d="M 424.799988 179.899994 A 4 4 0 0 1 420.799988 183.899994 A 4 4 0 0 1 416.799988 179.899994 A 4 4 0 0 1 420.799988 175.899994 A 4 4 0 0 1 424.799988 179.899994 Z" class="st9" style="fill-rule: evenodd; clip-rule: evenodd; fill: rgb(13, 36, 61);" transform="matrix(1.0000000149011612, 0, 0, 1.0000000149011612, 5.684341886080802e-14, 0)"/><path d="M 132 461.600006 A 4 4 0 0 1 128 465.600006 A 4 4 0 0 1 124 461.600006 A 4 4 0 0 1 128 457.600006 A 4 4 0 0 1 132 461.600006 Z" class="st9" style="fill-rule: evenodd; clip-rule: evenodd; fill: rgb(13, 36, 61);" transform="matrix(1.0000000149011612, 0, 0, 1.0000000149011612, 5.684341886080802e-14, 0)"/><path d="M 411.200012 495.200012 A 4 4 0 0 1 407.200012 499.200012 A 4 4 0 0 1 403.200012 495.200012 A 4 4 0 0 1 407.200012 491.200012 A 4 4 0 0 1 411.200012 495.200012 Z" class="st9" style="fill-rule: evenodd; clip-rule: evenodd; fill: rgb(13, 36, 61);" transform="matrix(1.0000000149011612, 0, 0, 1.0000000149011612, 5.684341886080802e-14, 0)"/><path d="M 1116.300049 514.299988 A 4 4 0 0 1 1112.300049 518.299988 A 4 4 0 0 1 1108.300049 514.299988 A 4 4 0 0 1 1112.300049 510.299988 A 4 4 0 0 1 1116.300049 514.299988 Z" class="st9" style="fill-rule: evenodd; clip-rule: evenodd; fill: rgb(13, 36, 61);" transform="matrix(1.0000000149011612, 0, 0, 1.0000000149011612, 5.684341886080802e-14, 0)"/><path d="M 987.900024 286.600006 A 4 4 0 0 1 983.900024 290.600006 A 4 4 0 0 1 979.900024 286.600006 A 4 4 0 0 1 983.900024 282.600006 A 4 4 0 0 1 987.900024 286.600006 Z" class="st3" style="fill-rule: evenodd; clip-rule: evenodd; fill: rgb(252, 225, 183);" transform="matrix(1.0000000149011612, 0, 0, 1.0000000149011612, 5.684341886080802e-14, 0)"/><path d="M 374.600006 241.100006 A 2 2 0 0 1 372.600006 243.100006 A 2 2 0 0 1 370.600006 241.100006 A 2 2 0 0 1 372.600006 239.100006 A 2 2 0 0 1 374.600006 241.100006 Z" class="st3" style="fill-rule: evenodd; clip-rule: evenodd; fill: rgb(252, 225, 183);" transform="matrix(1.0000000149011612, 0, 0, 1.0000000149011612, 5.684341886080802e-14, 0)"/><path d="M 978 476.799988 A 2 2 0 0 1 976 478.799988 A 2 2 0 0 1 974 476.799988 A 2 2 0 0 1 976 474.799988 A 2 2 0 0 1 978 476.799988 Z" class="st3" style="fill-rule: evenodd; clip-rule: evenodd; fill: rgb(252, 225, 183);" transform="matrix(1.0000000149011612, 0, 0, 1.0000000149011612, 5.684341886080802e-14, 0)"/><path d="M 320 460.799988 A 2 2 0 0 1 318 462.799988 A 2 2 0 0 1 316 460.799988 A 2 2 0 0 1 318 458.799988 A 2 2 0 0 1 320 460.799988 Z" class="st3" style="fill-rule: evenodd; clip-rule: evenodd; fill: rgb(252, 225, 183);" transform="matrix(1.0000000149011612, 0, 0, 1.0000000149011612, 5.684341886080802e-14, 0)"/><path d="M 1241.900024 460.799988 A 2 2 0 0 1 1239.900024 462.799988 A 2 2 0 0 1 1237.900024 460.799988 A 2 2 0 0 1 1239.900024 458.799988 A 2 2 0 0 1 1241.900024 460.799988 Z" class="st3" style="fill-rule: evenodd; clip-rule: evenodd; fill: rgb(252, 225, 183);" transform="matrix(1.0000000149011612, 0, 0, 1.0000000149011612, 5.684341886080802e-14, 0)"/><path d="M 1079.800049 417.299988 A 4 4 0 0 1 1075.800049 421.299988 A 4 4 0 0 1 1071.800049 417.299988 A 4 4 0 0 1 1075.800049 413.299988 A 4 4 0 0 1 1079.800049 417.299988 Z" class="st3" style="fill-rule: evenodd; clip-rule: evenodd; fill: rgb(252, 225, 183);" transform="matrix(1.0000000149011612, 0, 0, 1.0000000149011612, 5.684341886080802e-14, 0)"/><path d="M 214.699997 118.199997 A 2 2 0 0 1 212.699997 120.199997 A 2 2 0 0 1 210.699997 118.199997 A 2 2 0 0 1 212.699997 116.199997 A 2 2 0 0 1 214.699997 118.199997 Z" class="st3" style="fill-rule: evenodd; clip-rule: evenodd; fill: rgb(252, 225, 183);" transform="matrix(1.0000000149011612, 0, 0, 1.0000000149011612, 5.684341886080802e-14, 0)"/><path d="M 487.200012 154.300003 A 4 4 0 0 1 483.200012 158.300003 A 4 4 0 0 1 479.200012 154.300003 A 4 4 0 0 1 483.200012 150.300003 A 4 4 0 0 1 487.200012 154.300003 Z" class="st3" style="fill-rule: evenodd; clip-rule: evenodd; fill: rgb(252, 225, 183);" transform="matrix(1.0000000149011612, 0, 0, 1.0000000149011612, 5.684341886080802e-14, 0)"/><path d="M 1032.900024 143.899994 A 2 2 0 0 1 1030.900024 145.899994 A 2 2 0 0 1 1028.900024 143.899994 A 2 2 0 0 1 1030.900024 141.899994 A 2 2 0 0 1 1032.900024 143.899994 Z" class="st3" style="fill-rule: evenodd; clip-rule: evenodd; fill: rgb(252, 225, 183);" transform="matrix(1.0000000149011612, 0, 0, 1.0000000149011612, 5.684341886080802e-14, 0)"/><path d="M 1147.300049 312.200012 A 2 2 0 0 1 1145.300049 314.200012 A 2 2 0 0 1 1143.300049 312.200012 A 2 2 0 0 1 1145.300049 310.200012 A 2 2 0 0 1 1147.300049 312.200012 Z" class="st3" style="fill-rule: evenodd; clip-rule: evenodd; fill: rgb(252, 225, 183);" transform="matrix(1.0000000149011612, 0, 0, 1.0000000149011612, 5.684341886080802e-14, 0)"/><path d="M 150.5 505.200012 A 2 2 0 0 1 148.5 507.200012 A 2 2 0 0 1 146.5 505.200012 A 2 2 0 0 1 148.5 503.200012 A 2 2 0 0 1 150.5 505.200012 Z" class="st3" style="fill-rule: evenodd; clip-rule: evenodd; fill: rgb(252, 225, 183);" transform="matrix(1.0000000149011612, 0, 0, 1.0000000149011612, 5.684341886080802e-14, 0)"/>
<path class="st6" d="M1353.1,910.2c-24.6-16.2-54.3-26.4-82.7-26.4c-13.2,0-24.8,2.2-34.6,6.2c-49.8-44.7-120.1-74.7-186.3-74.7&#10;&#9;&#9;&#9;c-30.1,0-55.9,6.2-76.1,17.2C903.5,779.9,813.8,746,728.9,746c-7,0-13.8,0.2-20.5,0.7c-16-3-33.1-4.6-51.4-4.6&#10;&#9;&#9;&#9;c-84.9,0-174.7,33.9-244.5,86.5c-20.3-11-46-17.2-76.1-17.2c-66.2,0-136.5,30-186.3,74.7c-9.8-4-21.4-6.2-34.6-6.2&#10;&#9;&#9;&#9;c-28.3,0-58.1,10.2-82.7,26.4c-5.4-1.4-11.4-2.2-17.9-2.2c-4.5,0-9.5,0.4-14.9,1v63.8h560.8c0.6,1.3,1.2,2.6,1.8,3.9H1400v-61.4&#10;&#9;&#9;&#9;c-11-2.2-20.9-3.4-29-3.4C1364.4,908,1358.5,908.8,1353.1,910.2z" style="fill-rule: evenodd; clip-rule: evenodd; fill: rgb(0, 17, 34);" transform="matrix(-0.6967848539352417, -0.0031248272862285376, 0.0031248272862285376, -0.6967848539352417, 1035.0349920346157, 602.0799408308321)"/><path class="st7" d="M306.8,869.9c-49.1,0-102.1,18-144.2,45.8c-11.4-5.8-26.1-9.1-43.5-9.1c-38.3,0-79.9,15.9-110.1,39.6&#10;&#9;&#9;&#9;c-2.7-1-5.7-1.8-8.9-2.4v46.2h395.9c0.7-1.3,1.5-2.7,2.2-4C431.2,921.9,390.4,869.9,306.8,869.9z" style="fill-rule: evenodd; clip-rule: evenodd; fill: rgb(1, 20, 39);" transform="matrix(-1.003703713417053, 0.18223668634891507, -0.18223668634891507, -1.003703713417053, 538.6129759344838, 953.1348876953125)"/><path class="st8" d="M1190.7,956.9c-14.7-8.6-32.3-14-48.7-14c-7.6,0-14.3,1.2-19.8,3.3c-30.2-23.7-71.9-39.6-110.1-39.6&#10;&#9;&#9;&#9;c-17.4,0-32.1,3.3-43.5,9.1c-42.1-27.8-95.1-45.8-144.2-45.8c-83.6,0-124.5,52-91.3,116.1c0.7,1.3,1.4,2.7,2.2,4h572.4&#10;&#9;&#9;&#9;c-30.8-17.8-82.7-34.3-106.7-34.3C1197.2,955.7,1193.8,956.1,1190.7,956.9z" style="fill-rule: evenodd; clip-rule: evenodd; fill: rgb(4, 25, 46);" transform="matrix(-0.9996811747550963, 0.0252587329596281, -0.0252587329596281, -0.9996811747550963, 2191.4256401498683, 955.4292908413521)"/><path class="st9" d="M716.2,888.2c-41.7,0-86.6,15.2-122.2,38.8c-9.7-4.9-22.1-7.7-36.9-7.7c-32.4,0-67.8,13.5-93.4,33.6&#10;&#9;&#9;&#9;c-4.7-1.8-10.3-2.8-16.8-2.8c-13.9,0-28.8,4.6-41.3,11.8c-2.6-0.6-5.5-1-8.7-1c-20.3,0-64.3,14-90.4,29.1h485.2&#10;&#9;&#9;&#9;c0.6-1.1,1.3-2.3,1.8-3.4C821.8,932.3,787.1,888.2,716.2,888.2z" style="fill-rule: evenodd; clip-rule: evenodd; fill: rgb(13, 36, 61);" transform="matrix(-0.9941532015800477, -0.10799093544483186, 0.10799093544483186, -0.9941532015800477, 1064.4963873681547, 1003.7102811974017)"/><path d="M 280.599994 321.600006 A 10.7 10.7 0 0 1 269.899994 332.300006 A 10.7 10.7 0 0 1 259.199994 321.600006 A 10.7 10.7 0 0 1 269.899994 310.900006 A 10.7 10.7 0 0 1 280.599994 321.600006 Z" class="st9" style="fill-rule: evenodd; clip-rule: evenodd; fill: rgb(13, 36, 61);" transform="matrix(1, 0, 0, 1, 87.71407511859093, 332.3646037504707)"/><path d="M 280.599994 321.600006 A 10.7 10.7 0 0 1 269.899994 332.300006 A 10.7 10.7 0 0 1 259.199994 321.600006 A 10.7 10.7 0 0 1 269.899994 310.900006 A 10.7 10.7 0 0 1 280.599994 321.600006 Z" class="st9" style="fill-rule: evenodd; clip-rule: evenodd; fill: rgb(13, 36, 61);" transform="matrix(1, 0, 0, 1, 457.30772926229264, 324.45885713777113)"/><path d="M 280.599994 321.600006 A 10.7 10.7 0 0 1 269.899994 332.300006 A 10.7 10.7 0 0 1 259.199994 321.600006 A 10.7 10.7 0 0 1 269.899994 310.900006 A 10.7 10.7 0 0 1 280.599994 321.600006 Z" class="st9" style="fill-rule: evenodd; clip-rule: evenodd; fill: rgb(13, 36, 61);" transform="matrix(1, 0, 0, 1, 743.8910439726496, 494.43240931081044)"/><path d="M 132 461.600006 A 4 4 0 0 1 128 465.600006 A 4 4 0 0 1 124 461.600006 A 4 4 0 0 1 128 457.600006 A 4 4 0 0 1 132 461.600006 Z" class="st9" style="fill-rule: evenodd; clip-rule: evenodd; fill: rgb(13, 36, 61);" transform="matrix(1, 0, 0, 1, 1178.303617262087, -96.19517709858627)"/><path d="M 132 461.600006 A 4 4 0 0 1 128 465.600006 A 4 4 0 0 1 124 461.600006 A 4 4 0 0 1 128 457.600006 A 4 4 0 0 1 132 461.600006 Z" class="st9" style="fill-rule: evenodd; clip-rule: evenodd; fill: rgb(13, 36, 61);" transform="matrix(1, 0, 0, 1, 1168.4214339962127, 241.77549059431743)"/><path d="M 132 461.600006 A 4 4 0 0 1 128 465.600006 A 4 4 0 0 1 124 461.600006 A 4 4 0 0 1 128 457.600006 A 4 4 0 0 1 132 461.600006 Z" class="st9" style="fill-rule: evenodd; clip-rule: evenodd; fill: rgb(13, 36, 61);" transform="matrix(1, 0, 0, 1, 698.0295105405924, 208.17606749034456)"/><path d="M 132 461.600006 A 4 4 0 0 1 128 465.600006 A 4 4 0 0 1 124 461.600006 A 4 4 0 0 1 128 457.600006 A 4 4 0 0 1 132 461.600006 Z" class="st9" style="fill-rule: evenodd; clip-rule: evenodd; fill: rgb(13, 36, 61);" transform="matrix(1, 0, 0, 1, 302.74217990561726, 297.11571688321396)"/><path d="M 132 461.600006 A 4 4 0 0 1 128 465.600006 A 4 4 0 0 1 124 461.600006 A 4 4 0 0 1 128 457.600006 A 4 4 0 0 1 132 461.600006 Z" class="st9" style="fill-rule: evenodd; clip-rule: evenodd; fill: rgb(13, 36, 61);" transform="matrix(1, 0, 0, 1, -25.34630452141198, 326.76226668083706)"/><path d="M 132 461.600006 A 4 4 0 0 1 128 465.600006 A 4 4 0 0 1 124 461.600006 A 4 4 0 0 1 128 457.600006 A 4 4 0 0 1 132 461.600006 Z" class="st9" style="fill-rule: evenodd; clip-rule: evenodd; fill: rgb(13, 36, 61);" transform="matrix(1, 0, 0, 1, 403.54042412732724, 461.15997116377196)"/><path d="M 241.600006 353.100006 A 4 4 0 0 1 237.600006 357.100006 A 4 4 0 0 1 233.600006 353.100006 A 4 4 0 0 1 237.600006 349.100006 A 4 4 0 0 1 241.600006 353.100006 Z" class="st3" style="fill-rule: evenodd; clip-rule: evenodd; fill: rgb(252, 225, 183);" transform="matrix(1, 0, 0, 1, -10.430746050842686, 387.8278262661313)"/><path d="M 241.600006 353.100006 A 4 4 0 0 1 237.600006 357.100006 A 4 4 0 0 1 233.600006 353.100006 A 4 4 0 0 1 237.600006 349.100006 A 4 4 0 0 1 241.600006 353.100006 Z" class="st3" style="fill-rule: evenodd; clip-rule: evenodd; fill: rgb(252, 225, 183);" transform="matrix(1, 0, 0, 1, 760.3795486873587, 565.7071250518702)"/><path d="M 241.600006 353.100006 A 4 4 0 0 1 237.600006 357.100006 A 4 4 0 0 1 233.600006 353.100006 A 4 4 0 0 1 237.600006 349.100006 A 4 4 0 0 1 241.600006 353.100006 Z" class="st3" style="fill-rule: evenodd; clip-rule: evenodd; fill: rgb(252, 225, 183);" transform="matrix(1, 0, 0, 1, 928.3766642072231, 381.89851630660667)"/><path d="M 241.600006 353.100006 A 4 4 0 0 1 237.600006 357.100006 A 4 4 0 0 1 233.600006 353.100006 A 4 4 0 0 1 237.600006 349.100006 A 4 4 0 0 1 241.600006 353.100006 Z" class="st3" style="fill-rule: evenodd; clip-rule: evenodd; fill: rgb(252, 225, 183);" transform="matrix(1, 0, 0, 1, 1009.410566987393, 559.7778150923455)"/><path d="M 241.600006 353.100006 A 4 4 0 0 1 237.600006 357.100006 A 4 4 0 0 1 233.600006 353.100006 A 4 4 0 0 1 237.600006 349.100006 A 4 4 0 0 1 241.600006 353.100006 Z" class="st3" style="fill-rule: evenodd; clip-rule: evenodd; fill: rgb(252, 225, 183);" transform="matrix(1, 0, 0, 1, 1076.6094131953387, 332.4875999772348)"/><path d="M 241.600006 353.100006 A 4 4 0 0 1 237.600006 357.100006 A 4 4 0 0 1 233.600006 353.100006 A 4 4 0 0 1 237.600006 349.100006 A 4 4 0 0 1 241.600006 353.100006 Z" class="st3" style="fill-rule: evenodd; clip-rule: evenodd; fill: rgb(252, 225, 183);" transform="matrix(1, 0, 0, 1, -168.54567830483268, 372.0163330407323)"/><path d="M 241.600006 353.100006 A 4 4 0 0 1 237.600006 357.100006 A 4 4 0 0 1 233.600006 353.100006 A 4 4 0 0 1 237.600006 349.100006 A 4 4 0 0 1 241.600006 353.100006 Z" class="st3" style="fill-rule: evenodd; clip-rule: evenodd; fill: rgb(252, 225, 183);" transform="matrix(1, 0, 0, 1, -162.61634209923477, 526.1783959340293)"/><path d="M 374.600006 241.100006 A 2 2 0 0 1 372.600006 243.100006 A 2 2 0 0 1 370.600006 241.100006 A 2 2 0 0 1 372.600006 239.100006 A 2 2 0 0 1 374.600006 241.100006 Z" class="st3" style="fill-rule: evenodd; clip-rule: evenodd; fill: rgb(252, 225, 183);" transform="matrix(1, 0, 0, 1, -273.89916089455585, 547.262280948047)"/><path d="M 374.600006 241.100006 A 2 2 0 0 1 372.600006 243.100006 A 2 2 0 0 1 370.600006 241.100006 A 2 2 0 0 1 372.600006 239.100006 A 2 2 0 0 1 374.600006 241.100006 Z" class="st3" style="fill-rule: evenodd; clip-rule: evenodd; fill: rgb(252, 225, 183);" transform="matrix(1, 0, 0, 1, 200.44563586741424, 543.3094076416971)"/><path d="M 374.600006 241.100006 A 2 2 0 0 1 372.600006 243.100006 A 2 2 0 0 1 370.600006 241.100006 A 2 2 0 0 1 372.600006 239.100006 A 2 2 0 0 1 374.600006 241.100006 Z" class="st3" style="fill-rule: evenodd; clip-rule: evenodd; fill: rgb(252, 225, 183);" transform="matrix(1, 0, 0, 1, 633.285262912712, 590.7438873178942)"/><path d="M 374.600006 241.100006 A 2 2 0 0 1 372.600006 243.100006 A 2 2 0 0 1 370.600006 241.100006 A 2 2 0 0 1 372.600006 239.100006 A 2 2 0 0 1 374.600006 241.100006 Z" class="st3" style="fill-rule: evenodd; clip-rule: evenodd; fill: rgb(252, 225, 183);" transform="matrix(1, 0, 0, 1, 830.9289282301995, 535.4036610289977)"/><path d="M 374.600006 241.100006 A 2 2 0 0 1 372.600006 243.100006 A 2 2 0 0 1 370.600006 241.100006 A 2 2 0 0 1 372.600006 239.100006 A 2 2 0 0 1 374.600006 241.100006 Z" class="st3" style="fill-rule: evenodd; clip-rule: evenodd; fill: rgb(252, 225, 183);" transform="matrix(1, 0, 0, 1, 953.4680007270418, 679.6835367107635)"/><path d="M 487.200012 154.300003 A 4 4 0 0 1 483.200012 158.300003 A 4 4 0 0 1 479.200012 154.300003 A 4 4 0 0 1 483.200012 150.300003 A 4 4 0 0 1 487.200012 154.300003 Z" class="st3" style="fill-rule: evenodd; clip-rule: evenodd; fill: rgb(252, 225, 183);" transform="matrix(1, 0, 0, 1, -88.03367813990405, 724.9784368076505)"/><path d="M 487.200012 154.300003 A 4 4 0 0 1 483.200012 158.300003 A 4 4 0 0 1 479.200012 154.300003 A 4 4 0 0 1 483.200012 150.300003 A 4 4 0 0 1 487.200012 154.300003 Z" class="st3" style="fill-rule: evenodd; clip-rule: evenodd; fill: rgb(252, 225, 183);" transform="matrix(1, 0, 0, 1, 374.45249870301666, 723.0020001544756)"/><path d="M 487.200012 154.300003 A 4 4 0 0 1 483.200012 158.300003 A 4 4 0 0 1 479.200012 154.300003 A 4 4 0 0 1 483.200012 150.300003 A 4 4 0 0 1 487.200012 154.300003 Z" class="st3" style="fill-rule: evenodd; clip-rule: evenodd; fill: rgb(252, 225, 183);" transform="matrix(1, 0, 0, 1, 408.0519218069895, 610.3451109235077)"/><path d="M 487.200012 154.300003 A 4 4 0 0 1 483.200012 158.300003 A 4 4 0 0 1 479.200012 154.300003 A 4 4 0 0 1 483.200012 150.300003 A 4 4 0 0 1 487.200012 154.300003 Z" class="st3" style="fill-rule: evenodd; clip-rule: evenodd; fill: rgb(252, 225, 183);" transform="matrix(1, 0, 0, 1, 172.85596007917945, 734.8606200735248)"/><path d="M 487.200012 154.300003 A 4 4 0 0 1 483.200012 158.300003 A 4 4 0 0 1 479.200012 154.300003 A 4 4 0 0 1 483.200012 150.300003 A 4 4 0 0 1 487.200012 154.300003 Z" class="st3" style="fill-rule: evenodd; clip-rule: evenodd; fill: rgb(252, 225, 183);" transform="matrix(1, 0, 0, 1, 242.0312429403001, 624.1801674957319)"/><path d="M 280.599994 321.600006 A 10.7 10.7 0 0 1 269.899994 332.300006 A 10.7 10.7 0 0 1 259.199994 321.600006 A 10.7 10.7 0 0 1 269.899994 310.900006 A 10.7 10.7 0 0 1 280.599994 321.600006 Z" class="st9" style="fill-rule: evenodd; clip-rule: evenodd; fill: rgb(13, 36, 61);" transform="matrix(1, 0, 0, 1, -30.872124071901567, 573.4898754378055)"/><path d="M 280.599994 321.600006 A 10.7 10.7 0 0 1 269.899994 332.300006 A 10.7 10.7 0 0 1 259.199994 321.600006 A 10.7 10.7 0 0 1 269.899994 310.900006 A 10.7 10.7 0 0 1 280.599994 321.600006 Z" class="st9" style="fill-rule: evenodd; clip-rule: evenodd; fill: rgb(13, 36, 61);" transform="matrix(1, 0, 0, 1, 206.30027430908342, 531.984705721133)"/><path d="M 411.200012 495.200012 A 4 4 0 0 1 407.200012 499.200012 A 4 4 0 0 1 403.200012 495.200012 A 4 4 0 0 1 407.200012 491.200012 A 4 4 0 0 1 411.200012 495.200012 Z" class="st9" style="fill-rule: evenodd; clip-rule: evenodd; fill: rgb(13, 36, 61);" transform="matrix(1, 0, 0, 1, 812.1404512810141, 356.4083099178003)"/><path d="M 411.200012 495.200012 A 4 4 0 0 1 407.200012 499.200012 A 4 4 0 0 1 403.200012 495.200012 A 4 4 0 0 1 407.200012 491.200012 A 4 4 0 0 1 411.200012 495.200012 Z" class="st9" style="fill-rule: evenodd; clip-rule: evenodd; fill: rgb(13, 36, 61);" transform="matrix(1, 0, 0, 1, 922.8209038588071, 314.9031402011279)"/></svg>